<?xml version="1.0" encoding="UTF-8" standalone="no"?>
<svg width="147px" height="200px" viewBox="0 0 147 200" version="1.1" xmlns="http://www.w3.org/2000/svg" xmlns:xlink="http://www.w3.org/1999/xlink">
    <!-- Generator: sketchtool 3.8.3 (29802) - http://www.bohemiancoding.com/sketch -->
    <title>6AD92751-6CF3-457B-BBA5-223C189828BB</title>
    <desc>Created with sketchtool.</desc>
    <defs></defs>
    <g id="home-3" stroke="none" stroke-width="1" fill="none" fill-rule="evenodd">
        <g id="Home">
            <g id="HEADER" transform="translate(-11.000000, 0.000000)">
                <g id="logo" transform="translate(11.000000, 0.000000)">
                    <polygon id="Fill-1" fill="#E3006A" points="0 199.564754 146.998131 199.564754 146.998131 0 0 0"></polygon>
                    <path d="M39.8612968,39.2198135 C38.9257445,39.2198135 38.0001011,39.240316 37.0876692,39.2805617 C36.173586,39.3223261 35.4725411,39.4043362 34.9820574,39.526592 L34.9820574,52.0035181 L38.5913238,52.0035181 C41.1312697,52.0035181 43.2030267,51.4719712 44.8065946,50.4058398 C46.4109883,49.3404678 47.2127722,47.5787693 47.2127722,45.1199849 C47.2127722,43.2762762 46.5885202,41.8319872 45.3416677,40.7871177 C44.0939895,39.7414889 42.2674744,39.2198135 39.8612968,39.2198135 L39.8612968,39.2198135 Z M25.8255359,32.7660739 C26.850267,32.6028131 27.9534424,32.4494238 29.1342365,32.3051468 C30.3142049,32.1616291 31.494999,32.0500042 32.6766188,31.9672348 C33.8565872,31.8852247 35.0043521,31.8237171 36.1182621,31.782712 C37.2313463,31.7424663 38.2569031,31.7212045 39.1924554,31.7212045 C41.3756859,31.7212045 43.5258871,31.9163581 45.6422335,32.3051468 C47.7577541,32.6946948 49.6528048,33.3606472 51.3232569,34.3022447 C52.9945347,35.2461202 54.330566,36.5157581 55.3330024,38.1134364 C56.3362645,39.7111148 56.8374827,41.6991004 56.8374827,44.0751154 C56.8374827,45.8375733 56.6475648,47.3631131 56.2693804,48.6540129 C55.8903703,49.9441533 55.3668574,51.0816638 54.6980159,52.0650257 C54.0300003,53.0483876 53.2166561,53.8996221 52.2588091,54.6156918 C51.3001364,55.3332802 50.2646708,55.9779708 49.1507609,56.5520415 L60.4459235,75.3589326 L49.8864864,75.3589326 L40.4624283,58.5187653 L34.9820574,58.5187653 L34.9820574,75.3589326 L25.8255359,75.3589326 L25.8255359,32.7660739 L25.8255359,32.7660739 Z" id="Fill-2" fill="#FFFFFF"></path>
                    <path d="M73.812843,53.8472268 C73.812843,55.9369657 73.9127563,57.8839463 74.1134087,59.6866499 C74.3140612,61.4901128 74.6914198,63.057417 75.2496134,64.3885625 C75.8061555,65.7204674 76.6079395,66.7759678 77.655791,67.5535451 C78.7019911,68.332641 80.0949979,68.7214297 81.8331598,68.7214297 C83.3921383,68.7214297 84.6835803,68.4245227 85.7091371,67.8307088 C86.7338682,67.2368949 87.5579469,66.3241528 88.1821989,65.0947606 C88.8056251,63.8653684 89.2399592,62.3200855 89.485201,60.4551149 C89.7296171,58.5909038 89.8534767,56.3887806 89.8534767,53.8472268 C89.8534767,51.8410166 89.7750323,49.9350411 89.6189693,48.1315781 C89.4620806,46.3288745 89.1061909,44.7509394 88.5496488,43.398532 C87.9922809,42.046884 87.1797625,40.9708811 86.1104419,40.1728013 C85.0411214,39.3732028 83.6142597,38.9737832 81.8331598,38.9737832 C78.7135513,38.9737832 76.5963793,40.2244373 75.483295,42.722708 C74.3693851,45.2224975 73.812843,48.9304173 73.812843,53.8472268 L73.812843,53.8472268 Z M64.1881324,53.8472268 C64.1881324,50.3648348 64.5440221,47.2309857 65.2582787,44.4441609 C65.9700581,41.6580954 67.0624991,39.3116952 68.5322987,37.406479 C70.0029241,35.5012628 71.8409994,34.0364712 74.0465246,33.0121042 C76.2520498,31.9884967 78.8473196,31.4751741 81.8331598,31.4751741 C85.0411214,31.4751741 87.7577736,32.0287423 89.9864192,33.13436 C92.2142391,34.2414965 94.0300197,35.7776672 95.433761,37.744391 C96.8366765,39.7111148 97.8614076,42.0681459 98.5079543,44.812447 C99.1536752,47.5582668 99.4773614,50.56986 99.4773614,53.8472268 C99.4773614,60.8545345 98.0174706,66.3347838 95.0993402,70.2887339 C92.1803842,74.2434433 87.7577736,76.2200387 81.8331598,76.2200387 C78.6251982,76.2200387 75.8945086,75.6664705 73.6452197,74.5600935 C71.3951051,73.4537164 69.56859,71.9175457 68.1648488,69.9508219 C66.7611076,67.9840981 65.747111,65.6278263 65.1245104,62.8820065 C64.4994327,60.1377055 64.1881324,57.1261122 64.1881324,53.8472268 L64.1881324,53.8472268 Z" id="Fill-3" fill="#FFFFFF"></path>
                    <path d="M129.953409,32.3355209 L138.641742,32.3355209 L138.641742,59.8711726 C138.641742,62.6579975 138.240437,65.0643865 137.438653,67.0926179 C136.636869,69.1208493 135.510573,70.801297 134.063068,72.1324425 C132.614738,73.4643474 130.888962,74.4583402 128.884089,75.1129023 C126.879216,75.7682238 124.672865,76.0970236 122.266688,76.0970236 C116.474191,76.0970236 112.185348,74.8061238 109.401812,72.2243242 C106.616624,69.643284 105.224443,65.8738566 105.224443,60.9160421 L105.224443,32.3355209 L114.380965,32.3355209 L114.380965,59.2560969 C114.380965,62.5349823 115.02586,64.9102379 116.318953,66.3864198 C117.610395,67.8610829 119.637563,68.5984145 122.401282,68.5984145 C125.07417,68.5984145 127.001424,67.8102063 128.182218,66.2322712 C129.362187,64.6550954 129.953409,62.3291977 129.953409,59.2560969 L129.953409,32.3355209" id="Fill-4" fill="#FFFFFF"></path>
                    <path d="M40.4624283,119.181943 C41.5763383,119.181943 42.6563933,119.060446 43.7042449,118.816694 C44.7504449,118.573701 45.6760884,118.198581 46.4778724,117.690574 C47.2796564,117.184086 47.9253773,116.54547 48.415861,115.773967 C48.905519,115.003984 49.1507609,114.090482 49.1507609,113.036501 C49.1507609,111.697762 48.8609296,110.64302 48.2820928,109.873037 C47.7024302,109.103053 46.9460614,108.503924 46.0096834,108.077927 C45.0741312,107.65117 44.0271053,107.377803 42.868606,107.255548 C41.7101066,107.13481 40.5516072,107.073303 39.3931078,107.073303 L34.5146941,107.073303 L34.5146941,118.816694 C34.7368155,118.898704 35.0927052,118.958693 35.5840147,118.998939 C36.0736726,119.039185 36.5971855,119.070318 37.1545534,119.090061 C37.7110955,119.111323 38.2907581,119.131066 38.8918896,119.151569 C39.4938469,119.172071 40.0173598,119.181943 40.4624283,119.181943 L40.4624283,119.181943 Z M37.513746,100.681071 C38.1495582,100.681071 38.887761,100.661328 39.7300057,100.621082 C40.5697732,100.580077 41.2642123,100.519329 41.8083685,100.438837 C43.5357959,99.9520922 45.0237616,99.2231135 46.2739171,98.2488639 C47.5232468,97.2761329 48.1483245,95.9981421 48.1483245,94.4171696 C48.1483245,93.3624285 47.9212487,92.4914508 47.4670971,91.8019585 C47.0112941,91.1124661 46.4101625,90.5649727 45.6603996,90.1602377 C44.9106366,89.7547433 44.0584831,89.4715047 43.103939,89.3090032 C42.149395,89.1465017 41.1486101,89.0652509 40.1040614,89.0652509 C38.9224416,89.0652509 37.8324778,89.0865128 36.8316929,89.1267585 C35.830908,89.1670042 35.059676,89.2277524 34.5146941,89.3074845 L34.5146941,100.681071 L37.513746,100.681071 L37.513746,100.681071 Z M57.304846,92.629653 C57.304846,93.6957844 57.1603432,94.7611564 56.8705119,95.825769 C56.5798549,96.8919004 56.1017572,97.8646313 55.4337415,98.7454806 C54.7657258,99.6270892 53.896232,100.404667 52.8269114,101.080491 C51.7575909,101.757074 50.4653232,102.259006 48.9509342,102.587046 L48.9509342,102.955333 C50.2877913,103.160358 51.5569385,103.508901 52.7600273,104.000202 C53.9631161,104.492263 55.0093162,105.168087 55.9011048,106.028433 C56.7920676,106.88878 57.4939382,107.934409 58.0067166,109.163042 C58.5186693,110.392434 58.7754714,111.847354 58.7754714,113.527042 C58.7754714,115.739797 58.262693,117.655644 57.2379619,119.273825 C56.212405,120.892765 54.8425187,122.214039 53.1274772,123.237646 C51.4124357,124.262773 49.4620611,125.020607 47.2796564,125.511908 C45.0964259,126.003969 42.8454855,126.24924 40.5293125,126.24924 L37.6219166,126.24924 C36.4411225,126.24924 35.1711496,126.218865 33.8128235,126.157358 C32.452846,126.09585 31.0722252,126.003969 29.6693097,125.880953 C28.2655684,125.757938 26.9840353,125.573416 25.8255359,125.328145 L25.8255359,82.9190493 C26.6719093,82.7960341 27.6404907,82.6730189 28.7329317,82.5500038 C29.8245469,82.4269886 30.9937808,82.3252354 32.2422848,82.2424659 C33.4891373,82.1612151 34.7706705,82.0997076 36.0852329,82.0579432 C37.3989695,82.0176975 38.7019717,81.9971949 39.9950651,81.9971949 C42.1774698,81.9971949 44.3053764,82.1505842 46.3779591,82.4573627 C48.449716,82.76566 50.2977,83.3085972 51.9243884,84.0861745 C53.5510768,84.8652705 54.8540789,85.951145 55.8350463,87.3437981 C56.8143623,88.7372105 57.304846,90.4996684 57.304846,92.629653 L57.304846,92.629653 Z" id="Fill-5" fill="#FFFFFF"></path>
                    <path d="M76.6863838,109.347565 L86.7115735,109.347565 L81.9669281,94.9654223 L81.3649708,94.9654223 L76.6863838,109.347565 L76.6863838,109.347565 Z M88.5166196,116.108083 L74.5477428,116.108083 L71.3397812,125.634923 L62.1832597,125.634923 L77.2883411,82.6115114 L86.4440369,82.6115114 L101.482234,125.634923 L91.8583494,125.634923 L88.5166196,116.108083 L88.5166196,116.108083 Z" id="Fill-6" fill="#FFFFFF"></path>
                    <polyline id="Fill-7" fill="#FFFFFF" points="105.49198 118.136314 117.32139 118.136314 117.32139 90.1101204 105.49198 90.1101204 105.49198 82.6115114 138.374205 82.6115114 138.374205 90.1101204 126.477911 90.1101204 126.477911 118.136314 138.374205 118.136314 138.374205 125.634923 105.49198 125.634923 105.49198 118.136314"></polyline>
                    <polyline id="Fill-8" fill="#FFFFFF" points="38.9926287 153.846399 25.7586517 132.887502 36.4526828 132.887502 43.2699108 144.565589 44.8065946 147.700197 46.27722 144.565589 53.2282163 132.887502 63.5878266 132.887502 50.154023 153.907906 63.9883058 175.910914 53.2951004 175.910914 46.1434517 163.61851 44.3392313 160.299379 42.6018951 163.61851 35.1158257 175.910914 24.7562153 175.910914 38.9926287 153.846399"></polyline>
                    <polyline id="Fill-9" fill="#1A171B" points="79.7614029 153.784891 66.5282517 132.825994 77.221457 132.825994 84.0395107 144.504081 85.5761945 147.63869 87.0468199 144.504081 93.9969905 132.825994 104.356601 132.825994 90.9227972 153.846399 104.757906 175.849406 94.0647004 175.849406 86.9130516 163.557003 85.1080055 160.237871 83.3706693 163.557003 75.8854256 175.849406 65.5258153 175.849406 79.7614029 153.784891"></polyline>
                    <polyline id="Fill-10" fill="#1A171B" points="130.220946 158.333415 138.508799 158.333415 138.508799 175.849406 107.764389 175.849406 107.764389 132.825994 116.920911 132.825994 116.920911 168.351556 130.220946 168.351556 130.220946 158.333415"></polyline>
                </g>
            </g>
        </g>
    </g>
</svg>